<svg id="svg" version="1.1" xmlns="http://www.w3.org/2000/svg" xmlns:xlink="http://www.w3.org/1999/xlink" width="400" height="400" viewBox="0, 0, 400,400"><g id="svgg"><path id="path0" d="M225.200 201.000 L 225.200 206.000 226.777 206.000 L 228.353 206.000 228.133 203.300 C 227.771 198.870,227.903 198.800,236.547 198.800 L 243.600 198.800 243.600 220.767 C 243.600 232.849,243.694 242.980,243.810 243.281 C 243.978 243.720,243.465 243.796,241.210 243.668 C 238.805 243.533,238.400 243.605,238.400 244.167 C 238.400 244.529,238.130 244.929,237.800 245.055 C 237.470 245.182,237.200 245.626,237.200 246.043 C 237.200 246.762,237.625 246.800,245.600 246.800 C 253.575 246.800,254.000 246.762,254.000 246.043 C 254.000 245.626,253.730 245.182,253.400 245.055 C 253.070 244.929,252.800 244.525,252.800 244.159 C 252.800 243.581,252.425 243.519,249.967 243.695 C 247.230 243.891,247.141 243.869,247.361 243.049 C 247.487 242.582,247.592 232.435,247.595 220.500 L 247.600 198.800 254.800 198.800 L 262.000 198.800 262.000 200.551 C 262.000 201.657,262.232 202.495,262.631 202.825 C 263.083 203.201,263.191 203.723,263.012 204.674 C 262.764 205.998,262.767 206.000,264.382 206.000 L 266.000 206.000 266.000 201.000 L 266.000 196.000 245.600 196.000 L 225.200 196.000 225.200 201.000 M270.400 196.992 C 270.400 197.938,270.484 197.973,272.200 197.738 C 273.849 197.512,274.000 197.563,274.000 198.346 C 274.000 198.822,274.254 199.200,274.575 199.200 C 275.008 199.200,275.094 199.544,274.923 200.600 C 274.775 201.509,274.854 202.000,275.148 202.000 C 275.396 202.000,275.600 202.270,275.600 202.600 C 275.600 202.930,275.890 203.200,276.243 203.200 C 276.730 203.200,276.826 203.444,276.636 204.200 C 276.491 204.777,276.557 205.200,276.792 205.200 C 277.017 205.200,277.200 205.650,277.200 206.200 C 277.200 206.854,277.424 207.200,277.847 207.200 C 278.289 207.200,278.429 207.444,278.291 207.974 C 278.180 208.400,278.310 208.833,278.580 208.937 C 278.882 209.053,279.002 209.604,278.891 210.363 C 278.781 211.114,278.884 211.600,279.155 211.600 C 279.400 211.600,279.600 211.870,279.600 212.200 C 279.600 212.530,279.859 212.800,280.175 212.800 C 280.608 212.800,280.694 213.144,280.523 214.200 C 280.375 215.109,280.454 215.600,280.748 215.600 C 280.996 215.600,281.200 215.870,281.200 216.200 C 281.200 216.530,281.490 216.800,281.843 216.800 C 282.330 216.800,282.426 217.044,282.236 217.800 C 282.091 218.377,282.157 218.800,282.392 218.800 C 282.617 218.800,282.800 219.141,282.800 219.557 C 282.800 219.974,283.090 220.426,283.445 220.562 C 283.855 220.719,284.015 221.101,283.883 221.605 C 283.752 222.107,283.873 222.400,284.212 222.400 C 284.603 222.400,284.688 222.782,284.523 223.800 C 284.375 224.709,284.454 225.200,284.748 225.200 C 284.996 225.200,285.200 225.470,285.200 225.800 C 285.200 226.130,285.459 226.400,285.775 226.400 C 286.208 226.400,286.294 226.744,286.123 227.800 C 285.975 228.709,286.054 229.200,286.348 229.200 C 286.596 229.200,286.800 229.470,286.800 229.800 C 286.800 230.130,287.091 230.400,287.447 230.400 C 287.896 230.400,288.030 230.644,287.884 231.200 C 287.769 231.640,287.838 232.000,288.037 232.000 C 288.237 232.000,288.400 232.630,288.400 233.400 C 288.400 234.170,288.580 234.800,288.800 234.800 C 289.020 234.800,289.200 235.070,289.200 235.400 C 289.200 235.730,289.459 236.000,289.775 236.000 C 290.208 236.000,290.294 236.344,290.123 237.400 C 289.975 238.309,290.054 238.800,290.348 238.800 C 290.596 238.800,290.800 239.070,290.800 239.400 C 290.800 239.730,291.090 240.000,291.443 240.000 C 291.930 240.000,292.026 240.244,291.836 241.000 C 291.691 241.577,291.757 242.000,291.992 242.000 C 292.217 242.000,292.400 242.450,292.400 243.000 C 292.400 243.643,292.625 244.000,293.029 244.000 C 293.412 244.000,293.606 244.273,293.525 244.695 C 293.451 245.078,293.708 245.708,294.095 246.095 C 294.941 246.941,296.800 247.042,296.800 246.243 C 296.800 245.936,297.070 245.582,297.400 245.455 C 297.730 245.329,298.000 244.859,298.000 244.413 C 298.000 243.966,298.183 243.600,298.408 243.600 C 298.643 243.600,298.709 243.177,298.564 242.600 C 298.374 241.844,298.470 241.600,298.957 241.600 C 299.310 241.600,299.600 241.330,299.600 241.000 C 299.600 240.670,299.804 240.400,300.052 240.400 C 300.346 240.400,300.425 239.909,300.277 239.000 C 300.106 237.944,300.192 237.600,300.625 237.600 C 300.941 237.600,301.200 237.330,301.200 237.000 C 301.200 236.670,301.380 236.400,301.600 236.400 C 301.820 236.400,302.000 235.770,302.000 235.000 C 302.000 234.230,302.163 233.600,302.363 233.600 C 302.562 233.600,302.631 233.240,302.516 232.800 C 302.370 232.244,302.504 232.000,302.953 232.000 C 303.309 232.000,303.600 231.730,303.600 231.400 C 303.600 231.070,303.804 230.800,304.052 230.800 C 304.346 230.800,304.425 230.309,304.277 229.400 C 304.106 228.344,304.192 228.000,304.625 228.000 C 304.941 228.000,305.200 227.730,305.200 227.400 C 305.200 227.070,305.400 226.800,305.645 226.800 C 305.916 226.800,306.019 226.314,305.909 225.563 C 305.798 224.804,305.918 224.253,306.220 224.137 C 306.490 224.033,306.627 223.625,306.524 223.229 C 306.414 222.810,306.599 222.409,306.968 222.268 C 307.315 222.134,307.600 221.659,307.600 221.213 C 307.600 220.766,307.783 220.400,308.008 220.400 C 308.243 220.400,308.309 219.977,308.164 219.400 C 307.974 218.644,308.070 218.400,308.557 218.400 C 308.910 218.400,309.200 218.130,309.200 217.800 C 309.200 217.470,309.404 217.200,309.652 217.200 C 309.946 217.200,310.025 216.709,309.877 215.800 C 309.706 214.744,309.792 214.400,310.225 214.400 C 310.541 214.400,310.800 214.130,310.800 213.800 C 310.800 213.470,310.980 213.200,311.200 213.200 C 311.420 213.200,311.600 212.570,311.600 211.800 C 311.600 211.030,311.763 210.400,311.963 210.400 C 312.162 210.400,312.231 210.040,312.116 209.600 C 311.970 209.044,312.104 208.800,312.553 208.800 C 312.909 208.800,313.200 208.530,313.200 208.200 C 313.200 207.870,313.404 207.600,313.652 207.600 C 313.946 207.600,314.025 207.109,313.877 206.200 C 313.706 205.144,313.792 204.800,314.225 204.800 C 314.541 204.800,314.800 204.530,314.800 204.200 C 314.800 203.870,315.000 203.600,315.245 203.600 C 315.516 203.600,315.619 203.114,315.509 202.363 C 315.398 201.604,315.518 201.053,315.820 200.937 C 316.090 200.833,316.227 200.425,316.124 200.029 C 316.014 199.612,316.198 199.210,316.561 199.070 C 316.943 198.924,317.089 198.577,316.937 198.179 C 316.717 197.606,316.957 197.562,318.943 197.810 C 321.182 198.090,321.200 198.084,321.200 197.046 L 321.200 196.000 314.400 196.000 L 307.600 196.000 307.600 197.024 L 307.600 198.048 310.340 197.778 C 313.007 197.516,314.812 198.360,313.037 199.041 C 312.722 199.162,312.575 199.581,312.691 200.026 C 312.829 200.556,312.689 200.800,312.247 200.800 C 311.824 200.800,311.600 201.146,311.600 201.800 C 311.600 202.350,311.417 202.800,311.192 202.800 C 310.957 202.800,310.891 203.223,311.036 203.800 C 311.226 204.556,311.130 204.800,310.643 204.800 C 310.290 204.800,310.000 205.070,310.000 205.400 C 310.000 205.730,309.800 206.000,309.555 206.000 C 309.264 206.000,309.201 206.482,309.374 207.400 C 309.582 208.509,309.508 208.800,309.018 208.800 C 308.678 208.800,308.400 209.070,308.400 209.400 C 308.400 209.730,308.196 210.000,307.948 210.000 C 307.654 210.000,307.575 210.491,307.723 211.400 C 307.894 212.456,307.808 212.800,307.375 212.800 C 307.059 212.800,306.800 213.070,306.800 213.400 C 306.800 213.730,306.600 214.000,306.355 214.000 C 306.084 214.000,305.981 214.486,306.091 215.237 C 306.202 215.996,306.082 216.547,305.780 216.663 C 305.510 216.767,305.379 217.198,305.490 217.621 C 305.614 218.098,305.446 218.484,305.045 218.638 C 304.690 218.774,304.400 219.316,304.400 219.843 C 304.400 220.369,304.237 220.800,304.037 220.800 C 303.838 220.800,303.769 221.160,303.884 221.600 C 304.030 222.156,303.896 222.400,303.447 222.400 C 303.024 222.400,302.800 222.746,302.800 223.400 C 302.800 223.950,302.617 224.400,302.392 224.400 C 302.157 224.400,302.091 224.823,302.236 225.400 C 302.426 226.156,302.330 226.400,301.843 226.400 C 301.490 226.400,301.200 226.670,301.200 227.000 C 301.200 227.330,300.996 227.600,300.748 227.600 C 300.454 227.600,300.375 228.091,300.523 229.000 C 300.694 230.056,300.608 230.400,300.175 230.400 C 299.859 230.400,299.600 230.670,299.600 231.000 C 299.600 231.330,299.396 231.600,299.148 231.600 C 298.854 231.600,298.775 232.091,298.923 233.000 C 299.094 234.056,299.008 234.400,298.575 234.400 C 298.259 234.400,298.000 234.670,298.000 235.000 C 298.000 235.330,297.800 235.600,297.555 235.600 C 297.284 235.600,297.181 236.086,297.291 236.837 C 297.409 237.640,297.284 238.146,296.936 238.280 C 296.641 238.393,296.400 238.736,296.400 239.043 C 296.400 239.349,296.220 239.600,296.000 239.600 C 295.780 239.600,295.600 239.870,295.600 240.200 C 295.600 240.530,295.420 240.800,295.200 240.800 C 294.980 240.800,294.800 240.260,294.800 239.600 C 294.800 238.823,294.597 238.400,294.225 238.400 C 293.792 238.400,293.706 238.056,293.877 237.000 C 294.025 236.091,293.946 235.600,293.652 235.600 C 293.404 235.600,293.200 235.330,293.200 235.000 C 293.200 234.670,292.922 234.400,292.582 234.400 C 292.092 234.400,292.018 234.109,292.226 233.000 C 292.399 232.082,292.336 231.600,292.045 231.600 C 291.800 231.600,291.600 231.330,291.600 231.000 C 291.600 230.670,291.309 230.400,290.953 230.400 C 290.504 230.400,290.370 230.156,290.516 229.600 C 290.631 229.160,290.562 228.800,290.363 228.800 C 290.163 228.800,290.000 228.170,290.000 227.400 C 290.000 226.630,289.820 226.000,289.600 226.000 C 289.380 226.000,289.200 225.730,289.200 225.400 C 289.200 225.070,288.941 224.800,288.625 224.800 C 288.192 224.800,288.106 224.456,288.277 223.400 C 288.425 222.491,288.346 222.000,288.052 222.000 C 287.804 222.000,287.600 221.730,287.600 221.400 C 287.600 221.070,287.322 220.800,286.982 220.800 C 286.492 220.800,286.418 220.509,286.626 219.400 C 286.799 218.482,286.736 218.000,286.445 218.000 C 286.200 218.000,286.000 217.730,286.000 217.400 C 286.000 217.070,285.709 216.800,285.353 216.800 C 284.904 216.800,284.770 216.556,284.916 216.000 C 285.031 215.560,284.962 215.200,284.763 215.200 C 284.563 215.200,284.400 214.570,284.400 213.800 C 284.400 213.030,284.220 212.400,284.000 212.400 C 283.780 212.400,283.600 212.130,283.600 211.800 C 283.600 211.470,283.341 211.200,283.025 211.200 C 282.592 211.200,282.506 210.856,282.677 209.800 C 282.825 208.891,282.746 208.400,282.452 208.400 C 282.204 208.400,282.000 208.130,282.000 207.800 C 282.000 207.470,281.741 207.200,281.425 207.200 C 280.992 207.200,280.906 206.856,281.077 205.800 C 281.225 204.891,281.146 204.400,280.852 204.400 C 280.604 204.400,280.400 204.130,280.400 203.800 C 280.400 203.470,280.109 203.200,279.753 203.200 C 279.304 203.200,279.170 202.956,279.316 202.400 C 279.431 201.960,279.362 201.600,279.163 201.600 C 278.963 201.600,278.800 201.215,278.800 200.744 C 278.800 200.273,278.501 199.669,278.135 199.402 C 276.550 198.243,277.806 197.478,280.807 197.773 L 283.600 198.048 283.600 197.024 L 283.600 196.000 277.000 196.000 L 270.400 196.000 270.400 196.992 M92.238 210.645 C 92.068 211.089,91.656 211.172,90.605 210.975 C 89.683 210.802,89.200 210.864,89.200 211.155 C 89.200 211.400,88.906 211.600,88.547 211.600 C 87.875 211.600,86.400 213.036,86.400 213.690 C 86.400 214.244,85.471 215.060,84.481 215.374 C 83.997 215.528,83.600 215.936,83.600 216.280 C 83.600 216.624,83.217 217.239,82.748 217.645 C 82.094 218.213,81.953 218.663,82.138 219.592 C 82.324 220.521,82.237 220.800,81.759 220.800 C 81.288 220.800,81.169 221.154,81.265 222.268 C 81.344 223.178,81.203 223.799,80.896 223.901 C 80.082 224.173,80.211 231.842,81.035 232.158 C 81.536 232.350,81.613 232.739,81.400 234.001 C 81.222 235.052,81.279 235.600,81.565 235.600 C 81.804 235.600,82.000 236.050,82.000 236.600 C 82.000 237.254,82.224 237.600,82.647 237.600 C 83.096 237.600,83.230 237.844,83.084 238.400 C 82.943 238.941,83.072 239.200,83.484 239.200 C 83.906 239.200,84.026 239.458,83.874 240.038 C 83.563 241.229,86.771 244.437,87.962 244.126 C 88.573 243.966,88.800 244.093,88.800 244.596 C 88.800 245.052,89.008 245.206,89.415 245.050 C 89.765 244.915,90.128 245.069,90.258 245.407 C 90.383 245.733,90.916 246.000,91.443 246.000 C 91.969 246.000,92.400 246.180,92.400 246.400 C 92.400 246.643,94.200 246.800,97.000 246.800 C 100.733 246.800,101.600 246.692,101.600 246.225 C 101.600 245.792,101.944 245.706,103.000 245.877 C 103.909 246.025,104.400 245.946,104.400 245.652 C 104.400 245.404,104.940 245.200,105.600 245.200 C 106.260 245.200,106.800 245.020,106.800 244.800 C 106.800 244.580,107.078 244.400,107.418 244.400 C 108.390 244.400,110.000 242.541,110.000 241.418 C 110.000 239.883,106.946 239.877,106.561 241.412 C 106.369 242.178,106.124 242.366,105.554 242.185 C 105.020 242.016,104.800 242.142,104.800 242.616 C 104.800 243.124,104.567 243.228,103.842 243.046 C 103.196 242.884,102.809 242.998,102.656 243.397 C 102.484 243.847,102.016 243.932,100.699 243.752 C 99.387 243.572,98.840 243.670,98.436 244.157 C 97.763 244.967,96.160 244.994,95.855 244.200 C 95.703 243.804,95.077 243.600,94.013 243.600 C 93.099 243.600,92.400 243.408,92.400 243.157 C 92.400 242.889,92.021 242.808,91.443 242.954 C 90.660 243.150,90.439 243.011,90.235 242.197 C 90.074 241.554,89.703 241.200,89.192 241.200 C 88.726 241.200,88.400 240.931,88.400 240.547 C 88.400 239.890,86.970 238.400,86.339 238.400 C 86.152 238.400,86.000 237.950,86.000 237.400 C 86.000 236.850,85.820 236.400,85.600 236.400 C 85.380 236.400,85.200 235.860,85.200 235.200 C 85.200 234.481,84.991 234.000,84.679 234.000 C 84.281 234.000,84.185 233.129,84.269 230.300 L 84.379 226.600 97.272 226.400 L 110.164 226.200 110.442 225.200 C 110.873 223.650,110.846 220.800,110.400 220.800 C 110.180 220.800,110.000 220.260,110.000 219.600 C 110.000 218.777,109.803 218.400,109.373 218.400 C 108.941 218.400,108.820 218.166,108.985 217.647 C 109.135 217.175,108.999 216.808,108.619 216.663 C 108.284 216.534,108.115 216.166,108.241 215.838 C 108.508 215.142,105.141 211.600,104.211 211.600 C 103.875 211.600,103.600 211.420,103.600 211.200 C 103.600 210.980,102.970 210.800,102.200 210.800 C 101.430 210.800,100.800 210.646,100.800 210.458 C 100.800 209.800,92.493 209.982,92.238 210.645 M126.633 210.657 C 126.462 211.105,126.081 211.193,125.179 210.995 C 124.223 210.786,123.799 210.909,123.232 211.564 C 122.833 212.024,122.241 212.400,121.917 212.400 C 121.593 212.400,121.115 212.868,120.855 213.439 C 120.539 214.132,120.174 214.399,119.761 214.240 C 118.458 213.740,117.536 215.593,118.571 216.629 C 119.355 217.412,120.800 217.363,120.800 216.553 C 120.800 216.081,121.067 215.958,121.788 216.096 C 122.331 216.199,122.681 216.130,122.564 215.942 C 122.448 215.754,122.543 215.600,122.776 215.600 C 123.009 215.600,123.200 215.309,123.200 214.953 C 123.200 214.486,123.442 214.370,124.070 214.534 C 124.660 214.689,125.178 214.487,125.681 213.907 C 126.712 212.717,134.690 212.697,135.346 213.882 C 135.564 214.277,136.251 215.077,136.872 215.660 C 137.492 216.244,138.000 216.919,138.000 217.160 C 138.000 217.402,138.267 217.600,138.592 217.600 C 139.063 217.600,139.135 217.965,138.941 219.377 C 138.754 220.742,138.853 221.310,139.368 221.825 C 139.860 222.317,140.007 223.042,139.919 224.548 L 139.800 226.600 135.900 226.714 C 132.709 226.808,132.000 226.941,132.000 227.443 C 132.000 227.955,131.631 228.011,129.800 227.783 C 127.877 227.542,127.600 227.595,127.600 228.198 C 127.600 228.771,127.361 228.844,126.200 228.626 C 125.111 228.422,124.800 228.496,124.800 228.957 C 124.800 229.411,124.473 229.497,123.400 229.323 C 122.491 229.175,122.000 229.254,122.000 229.548 C 122.000 229.796,121.706 230.000,121.347 230.000 C 120.613 230.000,119.200 231.459,119.200 232.218 C 119.200 232.490,118.748 232.827,118.195 232.966 C 117.362 233.175,117.232 233.387,117.437 234.205 C 117.613 234.905,117.498 235.264,117.042 235.439 C 116.124 235.791,116.116 240.316,117.032 240.668 C 117.412 240.813,117.587 241.208,117.470 241.655 C 117.343 242.141,117.487 242.400,117.884 242.400 C 118.309 242.400,118.426 242.658,118.270 243.252 C 117.984 244.347,118.853 245.216,119.948 244.930 C 120.542 244.774,120.800 244.891,120.800 245.316 C 120.800 245.728,121.059 245.857,121.600 245.716 C 122.125 245.578,122.400 245.704,122.400 246.081 C 122.400 246.544,123.289 246.662,127.000 246.693 C 129.538 246.714,131.600 246.567,131.600 246.365 C 131.600 246.164,131.870 246.000,132.200 246.000 C 132.530 246.000,132.800 245.718,132.800 245.373 C 132.800 244.928,133.032 244.820,133.600 245.000 C 134.183 245.185,134.400 245.072,134.400 244.584 C 134.400 244.084,134.634 243.972,135.321 244.144 C 136.276 244.384,136.752 243.960,137.726 242.000 C 138.629 240.184,139.387 240.754,139.521 243.350 C 139.686 246.543,140.033 246.800,144.171 246.800 L 147.600 246.800 147.600 245.145 L 147.600 243.490 145.100 243.691 L 142.600 243.892 142.721 231.346 C 142.831 219.934,142.783 218.800,142.186 218.800 C 141.642 218.800,141.576 218.526,141.800 217.200 C 141.978 216.148,141.921 215.600,141.635 215.600 C 141.396 215.600,141.200 215.325,141.200 214.989 C 141.200 213.678,137.632 210.694,136.367 210.947 C 135.545 211.111,135.200 211.022,135.200 210.648 C 135.200 209.814,126.953 209.824,126.633 210.657 M163.200 210.575 C 163.200 211.005,162.858 211.094,161.841 210.929 C 160.705 210.745,160.439 210.847,160.214 211.554 C 160.059 212.045,159.609 212.400,159.144 212.400 C 158.254 212.400,157.200 213.281,157.200 214.025 C 157.200 214.289,156.868 214.797,156.462 215.153 C 155.356 216.122,155.426 223.490,156.544 223.845 C 157.596 224.180,159.200 225.645,159.200 226.272 C 159.200 226.562,159.470 226.800,159.800 226.800 C 160.130 226.800,160.400 226.983,160.400 227.208 C 160.400 227.443,160.823 227.509,161.400 227.364 C 162.171 227.171,162.400 227.268,162.400 227.788 C 162.400 228.330,162.637 228.412,163.600 228.200 C 164.557 227.990,164.800 228.071,164.800 228.600 C 164.800 229.129,165.043 229.210,166.000 229.000 C 166.896 228.803,167.262 228.897,167.443 229.368 C 167.576 229.716,168.026 230.000,168.443 230.000 C 168.859 230.000,169.200 230.180,169.200 230.400 C 169.200 230.620,169.560 230.800,170.000 230.800 C 170.440 230.800,170.800 230.980,170.800 231.200 C 170.800 231.420,171.076 231.600,171.413 231.600 C 172.187 231.600,174.800 234.180,174.800 234.944 C 174.800 235.258,175.095 235.627,175.454 235.766 C 176.060 235.998,176.060 236.070,175.454 236.740 C 175.095 237.138,174.800 237.944,174.800 238.531 C 174.800 239.119,174.599 239.600,174.353 239.600 C 174.092 239.600,174.001 239.960,174.134 240.470 C 174.395 241.465,173.137 242.800,171.939 242.800 C 171.527 242.800,171.200 243.084,171.200 243.443 C 171.200 243.931,170.956 244.026,170.191 243.834 C 169.543 243.671,169.112 243.763,168.987 244.090 C 168.693 244.853,162.000 244.820,162.000 244.056 C 162.000 243.646,161.670 243.566,160.745 243.751 C 158.794 244.141,158.372 243.261,158.675 239.433 C 158.905 236.532,158.868 236.288,158.230 236.533 C 157.848 236.680,157.189 236.800,156.767 236.800 C 156.065 236.800,156.001 237.115,156.013 240.500 C 156.029 244.934,156.727 246.275,158.804 245.859 C 159.672 245.686,160.000 245.772,160.000 246.174 C 160.000 246.621,161.010 246.718,165.200 246.676 C 168.060 246.648,170.400 246.484,170.400 246.312 C 170.400 246.140,171.001 246.000,171.736 246.000 C 172.770 246.000,173.174 245.776,173.524 245.008 C 173.811 244.376,174.192 244.099,174.570 244.244 C 175.267 244.511,177.200 242.728,177.200 241.818 C 177.200 241.478,177.404 241.200,177.652 241.200 C 177.946 241.200,178.025 240.709,177.877 239.800 C 177.706 238.744,177.792 238.400,178.225 238.400 C 179.096 238.400,179.034 234.175,178.158 233.839 C 177.706 233.666,177.588 233.304,177.758 232.623 C 177.950 231.860,177.814 231.595,177.119 231.374 C 176.002 231.020,175.380 230.398,175.026 229.281 C 174.865 228.773,174.419 228.400,173.973 228.400 C 173.548 228.400,173.200 228.196,173.200 227.948 C 173.200 227.654,172.709 227.575,171.800 227.723 C 170.701 227.901,170.400 227.816,170.400 227.325 C 170.400 226.844,170.124 226.755,169.200 226.940 C 168.267 227.127,168.000 227.038,168.000 226.540 C 168.000 226.042,167.733 225.953,166.800 226.140 C 165.867 226.327,165.600 226.238,165.600 225.740 C 165.600 225.242,165.333 225.153,164.400 225.340 C 163.530 225.514,163.200 225.428,163.200 225.027 C 163.200 224.672,162.915 224.549,162.400 224.684 C 161.851 224.828,161.600 224.696,161.600 224.265 C 161.600 223.507,159.772 221.600,159.046 221.600 C 158.093 221.600,158.571 217.094,159.571 216.648 C 160.027 216.444,160.400 215.945,160.400 215.539 C 160.400 215.075,160.688 214.800,161.173 214.800 C 161.598 214.800,162.060 214.440,162.200 214.000 C 162.397 213.379,162.805 213.200,164.027 213.200 C 165.159 213.200,165.600 213.032,165.600 212.600 C 165.600 212.147,166.089 212.000,167.600 212.000 C 169.182 212.000,169.600 212.136,169.600 212.652 C 169.600 213.181,169.880 213.259,171.075 213.065 C 173.338 212.698,173.593 213.148,173.319 217.031 L 173.081 220.400 175.141 220.400 L 177.200 220.400 177.200 215.992 L 177.200 211.585 176.239 211.826 C 175.564 211.995,175.162 211.860,174.889 211.374 C 174.595 210.848,174.198 210.740,173.250 210.930 C 172.302 211.120,172.000 211.038,172.000 210.590 C 172.000 210.106,171.211 210.000,167.600 210.000 C 164.041 210.000,163.200 210.110,163.200 210.575 M183.201 211.797 C 182.621 213.322,182.632 213.332,184.562 213.067 C 186.525 212.798,186.990 213.257,186.827 215.300 C 186.779 215.905,186.933 216.400,187.170 216.400 C 187.406 216.400,187.600 216.760,187.600 217.200 C 187.600 217.640,187.780 218.000,188.000 218.000 C 188.220 218.000,188.400 218.270,188.400 218.600 C 188.400 218.930,188.691 219.200,189.047 219.200 C 189.496 219.200,189.630 219.444,189.484 220.000 C 189.369 220.440,189.438 220.800,189.637 220.800 C 189.837 220.800,190.000 221.430,190.000 222.200 C 190.000 222.970,190.180 223.600,190.400 223.600 C 190.620 223.600,190.800 223.870,190.800 224.200 C 190.800 224.530,191.091 224.800,191.447 224.800 C 191.896 224.800,192.030 225.044,191.884 225.600 C 191.747 226.124,191.872 226.400,192.245 226.400 C 192.654 226.400,192.744 226.684,192.564 227.400 C 192.410 228.016,192.483 228.400,192.757 228.400 C 193.000 228.400,193.200 228.940,193.200 229.600 C 193.200 230.260,193.380 230.800,193.600 230.800 C 193.820 230.800,194.000 231.070,194.000 231.400 C 194.000 231.730,194.291 232.000,194.647 232.000 C 195.096 232.000,195.230 232.244,195.084 232.800 C 194.952 233.307,195.072 233.600,195.412 233.600 C 195.803 233.600,195.888 233.982,195.723 235.000 C 195.575 235.909,195.654 236.400,195.948 236.400 C 196.196 236.400,196.400 236.760,196.400 237.200 C 196.400 237.640,196.580 238.000,196.800 238.000 C 197.020 238.000,197.200 238.270,197.200 238.600 C 197.200 238.930,197.491 239.200,197.847 239.200 C 198.289 239.200,198.429 239.444,198.291 239.974 C 198.180 240.400,198.310 240.833,198.580 240.937 C 198.882 241.053,199.002 241.604,198.891 242.363 C 198.781 243.114,198.884 243.600,199.155 243.600 C 199.400 243.600,199.600 243.870,199.600 244.200 C 199.600 244.530,199.870 244.800,200.200 244.800 C 200.530 244.800,200.800 244.980,200.800 245.200 C 200.800 245.420,200.547 245.600,200.237 245.600 C 199.872 245.600,199.748 245.880,199.884 246.400 C 200.030 246.956,199.896 247.200,199.447 247.200 C 199.091 247.200,198.800 247.470,198.800 247.800 C 198.800 248.130,198.620 248.400,198.400 248.400 C 198.180 248.400,198.000 248.760,198.000 249.200 C 198.000 249.640,197.800 250.000,197.555 250.000 C 197.284 250.000,197.181 250.486,197.291 251.237 C 197.410 252.051,197.285 252.546,196.924 252.684 C 196.595 252.811,196.472 253.196,196.615 253.647 C 196.775 254.152,196.660 254.400,196.264 254.400 C 195.872 254.400,195.745 254.667,195.884 255.200 C 196.030 255.756,195.896 256.000,195.447 256.000 C 195.091 256.000,194.800 256.270,194.800 256.600 C 194.800 256.930,194.620 257.200,194.400 257.200 C 193.941 257.200,193.844 258.387,194.300 258.425 C 194.465 258.439,195.389 258.540,196.353 258.650 C 197.986 258.837,198.091 258.792,197.884 258.001 C 197.752 257.493,197.873 257.070,198.187 256.950 C 198.480 256.837,198.622 256.407,198.509 255.974 C 198.371 255.444,198.511 255.200,198.953 255.200 C 199.309 255.200,199.600 254.930,199.600 254.600 C 199.600 254.270,199.780 254.000,200.000 254.000 C 200.220 254.000,200.400 253.471,200.400 252.824 C 200.400 252.177,200.563 251.546,200.762 251.423 C 200.962 251.300,201.031 250.839,200.916 250.400 C 200.770 249.844,200.904 249.600,201.353 249.600 C 201.709 249.600,202.000 249.330,202.000 249.000 C 202.000 248.670,202.180 248.400,202.400 248.400 C 202.620 248.400,202.800 247.939,202.800 247.376 C 202.800 246.813,202.967 246.456,203.170 246.582 C 203.379 246.711,203.484 246.197,203.410 245.405 C 203.321 244.448,203.446 244.000,203.802 244.000 C 204.128 244.000,204.246 243.699,204.116 243.200 C 203.970 242.644,204.104 242.400,204.553 242.400 C 204.909 242.400,205.200 242.130,205.200 241.800 C 205.200 241.470,205.400 241.200,205.645 241.200 C 205.916 241.200,206.019 240.714,205.909 239.963 C 205.798 239.204,205.918 238.653,206.220 238.537 C 206.490 238.433,206.620 238.000,206.509 237.574 C 206.371 237.044,206.511 236.800,206.953 236.800 C 207.309 236.800,207.600 236.530,207.600 236.200 C 207.600 235.870,207.780 235.600,208.000 235.600 C 208.220 235.600,208.400 234.970,208.400 234.200 C 208.400 233.430,208.563 232.800,208.763 232.800 C 208.962 232.800,209.031 232.440,208.916 232.000 C 208.770 231.444,208.904 231.200,209.353 231.200 C 209.709 231.200,210.000 230.930,210.000 230.600 C 210.000 230.270,210.180 230.000,210.400 230.000 C 210.620 230.000,210.800 229.539,210.800 228.976 C 210.800 228.413,210.967 228.056,211.170 228.182 C 211.379 228.311,211.484 227.797,211.410 227.005 C 211.319 226.019,211.443 225.600,211.827 225.600 C 212.143 225.600,212.280 225.353,212.150 225.015 C 212.022 224.680,212.389 224.001,213.011 223.424 C 213.820 222.675,214.046 222.153,213.898 221.378 C 213.777 220.747,213.898 220.260,214.205 220.143 C 214.484 220.036,214.620 219.600,214.509 219.174 C 214.371 218.644,214.511 218.400,214.953 218.400 C 215.309 218.400,215.600 218.130,215.600 217.800 C 215.600 217.470,215.780 217.200,216.000 217.200 C 216.220 217.200,216.400 216.570,216.400 215.800 C 216.400 215.030,216.588 214.400,216.818 214.400 C 217.047 214.400,217.182 214.097,217.118 213.726 C 217.018 213.155,217.319 213.068,219.100 213.156 L 221.200 213.259 221.200 212.030 L 221.200 210.800 214.800 210.800 L 208.400 210.800 208.400 212.055 L 208.400 213.310 211.005 213.100 C 213.946 212.864,214.331 213.093,213.142 214.370 C 212.534 215.023,212.375 215.574,212.546 216.430 C 212.718 217.291,212.627 217.600,212.203 217.600 C 211.838 217.600,211.716 217.836,211.870 218.238 C 212.026 218.645,211.713 219.221,211.006 219.829 C 210.097 220.610,209.940 221.001,210.138 221.991 C 210.320 222.899,210.233 223.200,209.790 223.200 C 209.466 223.200,209.200 223.470,209.200 223.800 C 209.200 224.130,209.020 224.400,208.800 224.400 C 208.580 224.400,208.400 224.940,208.400 225.600 C 208.400 226.260,208.200 226.800,207.957 226.800 C 207.683 226.800,207.610 227.184,207.764 227.800 C 207.949 228.538,207.856 228.800,207.408 228.800 C 207.073 228.800,206.800 229.070,206.800 229.400 C 206.800 229.730,206.620 230.000,206.400 230.000 C 206.180 230.000,206.000 230.540,206.000 231.200 C 206.000 231.860,205.817 232.400,205.592 232.400 C 205.357 232.400,205.291 232.823,205.436 233.400 C 205.626 234.156,205.530 234.400,205.043 234.400 C 204.690 234.400,204.400 234.670,204.400 235.000 C 204.400 235.330,204.220 235.600,204.000 235.600 C 203.780 235.600,203.600 236.230,203.600 237.000 C 203.600 237.770,203.437 238.400,203.237 238.400 C 203.038 238.400,202.969 238.760,203.084 239.200 C 203.226 239.741,203.096 240.000,202.684 240.000 C 202.272 240.000,202.143 240.259,202.284 240.800 C 202.399 241.240,202.336 241.600,202.144 241.600 C 201.643 241.600,200.693 239.296,200.994 238.809 C 201.133 238.584,201.057 238.400,200.824 238.400 C 200.591 238.400,200.400 237.770,200.400 237.000 C 200.400 236.230,200.220 235.600,200.000 235.600 C 199.780 235.600,199.600 235.330,199.600 235.000 C 199.600 234.670,199.309 234.400,198.953 234.400 C 198.504 234.400,198.370 234.156,198.516 233.600 C 198.631 233.160,198.562 232.800,198.363 232.800 C 198.163 232.800,198.000 232.170,198.000 231.400 C 198.000 230.630,197.820 230.000,197.600 230.000 C 197.380 230.000,197.200 229.730,197.200 229.400 C 197.200 229.070,196.909 228.800,196.553 228.800 C 196.111 228.800,195.971 228.556,196.109 228.026 C 196.220 227.600,196.090 227.167,195.820 227.063 C 195.518 226.947,195.398 226.396,195.509 225.637 C 195.619 224.886,195.516 224.400,195.245 224.400 C 195.000 224.400,194.800 224.130,194.800 223.800 C 194.800 223.470,194.509 223.200,194.153 223.200 C 193.711 223.200,193.571 222.956,193.709 222.426 C 193.820 222.000,193.690 221.567,193.420 221.463 C 193.118 221.347,192.998 220.796,193.109 220.037 C 193.219 219.286,193.116 218.800,192.845 218.800 C 192.600 218.800,192.400 218.530,192.400 218.200 C 192.400 217.870,192.109 217.600,191.753 217.600 C 191.311 217.600,191.171 217.356,191.309 216.826 C 191.422 216.393,191.280 215.963,190.987 215.850 C 190.692 215.737,190.551 215.308,190.666 214.870 C 190.778 214.441,190.674 213.969,190.435 213.822 C 189.377 213.168,190.110 212.787,191.955 213.032 C 193.635 213.255,194.032 213.168,194.788 212.412 C 196.078 211.122,195.695 211.013,189.369 210.871 L 183.603 210.741 183.201 211.797 M99.200 212.672 C 99.200 213.121,99.489 213.200,100.400 213.000 C 101.155 212.834,101.600 212.897,101.600 213.168 C 101.600 213.406,101.960 213.600,102.400 213.600 C 102.840 213.600,103.200 213.862,103.200 214.182 C 103.200 214.936,105.064 216.800,105.818 216.800 C 106.138 216.800,106.400 217.160,106.400 217.600 C 106.400 218.040,106.594 218.400,106.832 218.400 C 107.103 218.400,107.166 218.845,107.000 219.600 C 106.788 220.563,106.870 220.800,107.411 220.800 C 107.862 220.800,108.005 221.010,107.843 221.433 C 107.709 221.781,107.600 222.591,107.600 223.233 L 107.600 224.400 96.043 224.400 C 85.873 224.400,84.456 224.324,84.243 223.767 C 83.831 222.695,83.972 222.000,84.600 222.000 C 84.989 222.000,85.200 221.610,85.200 220.888 C 85.200 220.241,85.529 219.539,85.988 219.209 C 86.536 218.813,86.705 218.362,86.544 217.721 C 86.377 217.054,86.486 216.800,86.938 216.800 C 87.619 216.800,89.600 215.000,89.600 214.382 C 89.600 214.172,89.941 214.000,90.357 214.000 C 90.774 214.000,91.209 213.752,91.326 213.449 C 91.463 213.091,91.915 212.971,92.621 213.106 C 93.348 213.245,93.818 213.110,94.050 212.697 C 94.536 211.828,99.200 211.805,99.200 212.672 M138.300 229.196 L 140.000 229.200 140.000 233.800 C 140.000 237.576,139.895 238.400,139.413 238.400 C 138.637 238.400,136.000 241.058,136.000 241.840 C 136.000 242.278,135.764 242.379,135.176 242.192 C 134.577 242.002,134.100 242.224,133.427 243.008 C 132.716 243.836,132.292 244.020,131.600 243.800 C 131.015 243.614,130.584 243.703,130.367 244.053 C 129.897 244.814,124.400 244.877,124.400 244.120 C 124.400 243.756,124.096 243.661,123.451 243.823 C 122.677 244.017,122.456 243.876,122.250 243.057 C 122.112 242.505,121.639 241.939,121.199 241.800 C 120.611 241.613,120.400 241.194,120.400 240.216 C 120.400 239.402,120.167 238.796,119.800 238.655 C 119.024 238.358,119.022 236.843,119.797 236.546 C 120.190 236.395,120.316 236.006,120.167 235.409 C 119.984 234.680,120.140 234.452,120.963 234.245 C 121.617 234.081,122.081 233.617,122.245 232.963 C 122.456 232.124,122.674 231.982,123.451 232.177 C 123.985 232.311,124.400 232.237,124.400 232.008 C 124.400 231.783,124.670 231.600,125.000 231.600 C 125.330 231.600,125.600 231.341,125.600 231.025 C 125.600 230.592,125.944 230.506,127.000 230.677 C 128.116 230.859,128.400 230.774,128.400 230.258 C 128.400 229.709,128.751 229.649,130.738 229.857 C 132.735 230.065,133.115 229.999,133.345 229.399 C 133.561 228.836,133.909 228.746,135.107 228.944 C 135.928 229.080,137.365 229.193,138.300 229.196 " stroke="none" fill="#f9f9f9" fill-rule="evenodd"></path><path id="path1" d="M200.000 117.200 C 199.683 117.640,199.143 118.000,198.800 118.000 C 198.457 118.000,197.917 118.360,197.600 118.800 C 197.283 119.240,196.775 119.600,196.472 119.600 C 196.169 119.600,195.417 120.140,194.800 120.800 C 194.183 121.460,193.431 122.000,193.128 122.000 C 192.825 122.000,192.317 122.360,192.000 122.800 C 191.683 123.240,191.175 123.600,190.872 123.600 C 190.569 123.600,189.817 124.140,189.200 124.800 C 188.583 125.460,187.863 126.000,187.600 126.000 C 187.337 126.000,186.617 126.540,186.000 127.200 C 185.383 127.860,184.631 128.400,184.328 128.400 C 184.025 128.400,183.517 128.760,183.200 129.200 C 182.883 129.640,182.375 130.000,182.072 130.000 C 181.769 130.000,181.017 130.540,180.400 131.200 C 179.783 131.860,179.031 132.400,178.728 132.400 C 178.425 132.400,177.917 132.760,177.600 133.200 C 177.283 133.640,176.775 134.000,176.472 134.000 C 176.169 134.000,175.417 134.540,174.800 135.200 C 174.183 135.860,173.391 136.400,173.040 136.400 C 172.688 136.400,172.400 136.580,172.400 136.800 C 172.400 137.020,172.040 137.200,171.600 137.200 C 170.813 137.200,170.800 137.467,170.800 153.013 L 170.800 168.827 172.187 170.213 C 172.949 170.976,173.777 171.600,174.026 171.600 C 174.275 171.600,174.983 172.140,175.600 172.800 C 176.217 173.460,176.937 174.000,177.200 174.000 C 177.463 174.000,178.183 174.540,178.800 175.200 C 179.417 175.860,180.137 176.400,180.400 176.400 C 180.663 176.400,181.383 176.940,182.000 177.600 C 182.617 178.260,183.369 178.800,183.672 178.800 C 183.975 178.800,184.483 179.160,184.800 179.600 C 185.117 180.040,185.625 180.400,185.928 180.400 C 186.231 180.400,186.983 180.940,187.600 181.600 C 188.217 182.260,188.937 182.800,189.200 182.800 C 189.463 182.800,190.183 183.340,190.800 184.000 C 191.417 184.660,192.137 185.200,192.400 185.200 C 192.663 185.200,193.383 185.740,194.000 186.400 C 194.617 187.060,195.369 187.600,195.672 187.600 C 195.975 187.600,196.483 187.960,196.800 188.400 C 197.117 188.840,197.625 189.200,197.928 189.200 C 198.231 189.200,198.983 189.740,199.600 190.400 C 201.020 191.920,202.180 191.920,203.600 190.400 C 204.217 189.740,204.937 189.200,205.200 189.200 C 205.463 189.200,206.183 188.660,206.800 188.000 C 207.417 187.340,208.169 186.800,208.472 186.800 C 208.775 186.800,209.283 186.440,209.600 186.000 C 209.917 185.560,210.425 185.200,210.728 185.200 C 211.031 185.200,211.783 184.660,212.400 184.000 C 213.017 183.340,213.737 182.800,214.000 182.800 C 214.263 182.800,214.983 182.260,215.600 181.600 C 216.217 180.940,216.969 180.400,217.272 180.400 C 217.575 180.400,218.083 180.040,218.400 179.600 C 218.717 179.160,219.225 178.800,219.528 178.800 C 219.831 178.800,220.583 178.260,221.200 177.600 C 221.817 176.940,222.569 176.400,222.872 176.400 C 223.175 176.400,223.683 176.040,224.000 175.600 C 224.317 175.160,224.825 174.800,225.128 174.800 C 225.431 174.800,226.183 174.260,226.800 173.600 C 227.417 172.940,228.169 172.400,228.472 172.400 C 228.775 172.400,229.283 172.040,229.600 171.600 C 229.917 171.160,230.497 170.800,230.888 170.800 C 231.333 170.800,231.600 170.500,231.600 170.000 C 231.600 169.560,231.780 169.200,232.000 169.200 C 232.260 169.200,232.400 163.794,232.400 153.782 L 232.400 138.364 231.418 137.382 C 230.878 136.842,230.198 136.400,229.906 136.400 C 229.615 136.400,229.117 136.040,228.800 135.600 C 228.483 135.160,227.975 134.800,227.672 134.800 C 227.369 134.800,226.617 134.260,226.000 133.600 C 225.383 132.940,224.663 132.400,224.400 132.400 C 224.137 132.400,223.417 131.860,222.800 131.200 C 222.183 130.540,221.431 130.000,221.128 130.000 C 220.825 130.000,220.317 129.640,220.000 129.200 C 219.683 128.760,219.175 128.400,218.872 128.400 C 218.569 128.400,217.817 127.860,217.200 127.200 C 216.583 126.540,215.863 126.000,215.600 126.000 C 215.337 126.000,214.617 125.460,214.000 124.800 C 213.383 124.140,212.631 123.600,212.328 123.600 C 212.025 123.600,211.517 123.240,211.200 122.800 C 210.883 122.360,210.375 122.000,210.072 122.000 C 209.769 122.000,209.017 121.460,208.400 120.800 C 207.783 120.140,207.031 119.600,206.728 119.600 C 206.425 119.600,205.917 119.240,205.600 118.800 C 205.283 118.360,204.743 118.000,204.400 118.000 C 204.057 118.000,203.517 117.640,203.200 117.200 C 202.882 116.759,202.165 116.400,201.600 116.400 C 201.035 116.400,200.318 116.759,200.000 117.200 M202.000 121.600 C 202.000 121.820,202.320 122.000,202.712 122.000 C 203.103 122.000,203.683 122.360,204.000 122.800 C 204.317 123.240,204.825 123.600,205.128 123.600 C 205.431 123.600,206.183 124.140,206.800 124.800 C 207.417 125.460,208.137 126.000,208.400 126.000 C 208.663 126.000,209.383 126.540,210.000 127.200 C 210.617 127.860,211.369 128.400,211.672 128.400 C 211.975 128.400,212.483 128.760,212.800 129.200 C 213.117 129.640,213.625 130.000,213.928 130.000 C 214.231 130.000,214.983 130.540,215.600 131.200 C 216.217 131.860,216.969 132.400,217.272 132.400 C 217.575 132.400,218.083 132.760,218.400 133.200 C 218.717 133.640,219.225 134.000,219.528 134.000 C 219.831 134.000,220.583 134.540,221.200 135.200 C 221.817 135.860,222.525 136.400,222.774 136.400 C 223.023 136.400,223.858 137.031,224.629 137.802 L 226.032 139.205 225.034 140.202 C 224.485 140.751,223.798 141.200,223.506 141.200 C 223.215 141.200,222.717 141.560,222.400 142.000 C 222.083 142.440,221.575 142.800,221.272 142.800 C 220.969 142.800,220.217 143.340,219.600 144.000 C 218.983 144.660,218.231 145.200,217.928 145.200 C 217.625 145.200,217.117 145.560,216.800 146.000 C 216.483 146.440,215.975 146.800,215.672 146.800 C 215.369 146.800,214.617 147.340,214.000 148.000 C 213.383 148.660,212.631 149.200,212.328 149.200 C 212.025 149.200,211.517 149.560,211.200 150.000 C 210.883 150.440,210.375 150.800,210.072 150.800 C 209.769 150.800,209.017 151.340,208.400 152.000 C 207.783 152.660,207.031 153.200,206.728 153.200 C 206.425 153.200,205.917 153.560,205.600 154.000 C 205.283 154.440,204.775 154.800,204.472 154.800 C 204.169 154.800,203.395 155.363,202.752 156.051 L 201.583 157.303 200.845 156.451 C 200.438 155.983,199.884 155.600,199.614 155.600 C 199.343 155.600,198.617 155.060,198.000 154.400 C 197.383 153.740,196.631 153.200,196.328 153.200 C 196.025 153.200,195.517 152.840,195.200 152.400 C 194.883 151.960,194.343 151.600,194.000 151.600 C 193.657 151.600,193.117 151.240,192.800 150.800 C 192.483 150.360,191.975 150.000,191.672 150.000 C 191.369 150.000,190.617 149.460,190.000 148.800 C 189.383 148.140,188.631 147.600,188.328 147.600 C 188.025 147.600,187.517 147.240,187.200 146.800 C 186.883 146.360,186.375 146.000,186.072 146.000 C 185.769 146.000,185.017 145.460,184.400 144.800 C 183.783 144.140,183.031 143.600,182.728 143.600 C 182.425 143.600,181.917 143.240,181.600 142.800 C 181.283 142.360,180.775 142.000,180.472 142.000 C 180.169 142.000,179.417 141.460,178.800 140.800 C 178.183 140.140,177.391 139.600,177.040 139.600 C 176.688 139.600,176.400 139.497,176.400 139.371 C 176.400 138.962,177.531 138.000,178.011 138.000 C 178.268 138.000,178.983 137.460,179.600 136.800 C 180.217 136.140,180.969 135.600,181.272 135.600 C 181.575 135.600,182.083 135.240,182.400 134.800 C 182.717 134.360,183.225 134.000,183.528 134.000 C 183.831 134.000,184.583 133.460,185.200 132.800 C 185.817 132.140,186.569 131.600,186.872 131.600 C 187.175 131.600,187.683 131.240,188.000 130.800 C 188.317 130.360,188.825 130.000,189.128 130.000 C 189.431 130.000,190.183 129.460,190.800 128.800 C 191.417 128.140,192.137 127.600,192.400 127.600 C 192.663 127.600,193.383 127.060,194.000 126.400 C 194.617 125.740,195.369 125.200,195.672 125.200 C 195.975 125.200,196.483 124.840,196.800 124.400 C 197.117 123.960,197.652 123.595,197.988 123.588 C 198.325 123.581,199.050 123.047,199.600 122.400 C 200.568 121.262,202.000 120.784,202.000 121.600 M176.400 144.800 C 177.017 145.460,177.769 146.000,178.072 146.000 C 178.375 146.000,178.883 146.360,179.200 146.800 C 179.517 147.240,180.057 147.600,180.400 147.600 C 180.743 147.600,181.283 147.960,181.600 148.400 C 181.917 148.840,182.425 149.200,182.728 149.200 C 183.031 149.200,183.783 149.740,184.400 150.400 C 185.017 151.060,185.769 151.600,186.072 151.600 C 186.375 151.600,186.883 151.960,187.200 152.400 C 187.517 152.840,188.025 153.200,188.328 153.200 C 188.631 153.200,189.383 153.740,190.000 154.400 C 190.617 155.060,191.369 155.600,191.672 155.600 C 191.975 155.600,192.483 155.960,192.800 156.400 C 193.117 156.840,193.625 157.200,193.928 157.200 C 194.231 157.200,194.983 157.740,195.600 158.400 C 196.217 159.060,196.927 159.600,197.179 159.600 C 197.430 159.600,198.078 160.042,198.618 160.582 L 199.600 161.564 199.600 173.382 C 199.600 179.882,199.492 185.200,199.360 185.200 C 199.229 185.200,198.617 184.660,198.000 184.000 C 197.383 183.340,196.631 182.800,196.328 182.800 C 196.025 182.800,195.517 182.440,195.200 182.000 C 194.883 181.560,194.375 181.200,194.072 181.200 C 193.769 181.200,193.017 180.660,192.400 180.000 C 191.783 179.340,191.063 178.800,190.800 178.800 C 190.537 178.800,189.817 178.260,189.200 177.600 C 188.583 176.940,187.831 176.400,187.528 176.400 C 187.225 176.400,186.717 176.040,186.400 175.600 C 186.083 175.160,185.575 174.800,185.272 174.800 C 184.969 174.800,184.217 174.260,183.600 173.600 C 182.983 172.940,182.263 172.400,182.000 172.400 C 181.737 172.400,181.017 171.860,180.400 171.200 C 179.783 170.540,179.031 170.000,178.728 170.000 C 178.425 170.000,177.917 169.640,177.600 169.200 C 177.283 168.760,176.780 168.400,176.483 168.400 C 174.890 168.400,174.800 167.706,174.800 155.429 C 174.800 148.923,174.908 143.600,175.040 143.600 C 175.171 143.600,175.783 144.140,176.400 144.800 M228.400 155.429 C 228.400 167.706,228.310 168.400,226.717 168.400 C 226.420 168.400,225.917 168.760,225.600 169.200 C 225.283 169.640,224.775 170.000,224.472 170.000 C 224.169 170.000,223.417 170.540,222.800 171.200 C 222.183 171.860,221.431 172.400,221.128 172.400 C 220.825 172.400,220.317 172.760,220.000 173.200 C 219.683 173.640,219.175 174.000,218.872 174.000 C 218.569 174.000,217.817 174.540,217.200 175.200 C 216.583 175.860,215.863 176.400,215.600 176.400 C 215.337 176.400,214.617 176.940,214.000 177.600 C 213.383 178.260,212.631 178.800,212.328 178.800 C 212.025 178.800,211.517 179.160,211.200 179.600 C 210.883 180.040,210.375 180.400,210.072 180.400 C 209.769 180.400,209.017 180.940,208.400 181.600 C 207.783 182.260,207.063 182.800,206.800 182.800 C 206.537 182.800,205.817 183.340,205.200 184.000 C 204.583 184.660,203.971 185.200,203.840 185.200 C 203.708 185.200,203.600 179.884,203.600 173.387 L 203.600 161.573 204.987 160.187 C 205.749 159.424,206.610 158.800,206.898 158.800 C 207.187 158.800,207.683 158.440,208.000 158.000 C 208.317 157.560,208.825 157.200,209.128 157.200 C 209.431 157.200,210.183 156.660,210.800 156.000 C 211.417 155.340,212.169 154.800,212.472 154.800 C 212.775 154.800,213.283 154.440,213.600 154.000 C 213.917 153.560,214.425 153.200,214.728 153.200 C 215.031 153.200,215.783 152.660,216.400 152.000 C 217.017 151.340,217.769 150.800,218.072 150.800 C 218.375 150.800,218.883 150.440,219.200 150.000 C 219.517 149.560,220.025 149.200,220.328 149.200 C 220.631 149.200,221.383 148.660,222.000 148.000 C 222.617 147.340,223.369 146.800,223.672 146.800 C 223.975 146.800,224.483 146.440,224.800 146.000 C 225.117 145.560,225.657 145.200,226.000 145.200 C 226.343 145.200,226.883 144.840,227.200 144.400 C 228.310 142.860,228.400 143.688,228.400 155.429 " stroke="none" fill="#34b42c" fill-rule="evenodd"></path><path id="path2" d="M269.200 195.400 C 269.200 195.730,269.470 196.000,269.800 196.000 C 270.130 196.000,270.400 195.730,270.400 195.400 C 270.400 195.070,270.130 194.800,269.800 194.800 C 269.470 194.800,269.200 195.070,269.200 195.400 M269.200 197.400 C 269.200 197.730,269.380 198.000,269.600 198.000 C 269.820 198.000,270.000 197.730,270.000 197.400 C 270.000 197.070,269.820 196.800,269.600 196.800 C 269.380 196.800,269.200 197.070,269.200 197.400 M272.590 198.248 C 272.947 198.604,273.338 198.796,273.459 198.674 C 273.815 198.318,273.206 197.600,272.548 197.600 C 272.025 197.600,272.031 197.688,272.590 198.248 M278.446 198.157 C 277.894 198.463,277.668 198.795,277.910 198.944 C 278.405 199.250,279.600 198.856,279.600 198.387 C 279.600 198.206,279.915 197.976,280.300 197.876 C 280.885 197.723,280.869 197.688,280.200 197.661 C 279.760 197.643,278.971 197.866,278.446 198.157 M310.800 197.892 C 311.130 198.017,311.525 198.313,311.678 198.548 C 311.831 198.784,312.096 198.837,312.267 198.667 C 312.637 198.296,311.648 197.602,310.800 197.638 C 310.267 197.660,310.267 197.689,310.800 197.892 M317.600 198.400 C 317.600 198.620,317.870 198.800,318.200 198.800 C 318.530 198.800,318.800 198.620,318.800 198.400 C 318.800 198.180,318.530 198.000,318.200 198.000 C 317.870 198.000,317.600 198.180,317.600 198.400 M228.284 202.800 C 228.148 203.320,228.272 203.600,228.637 203.600 C 228.947 203.600,229.200 203.240,229.200 202.800 C 229.200 202.360,229.041 202.000,228.847 202.000 C 228.652 202.000,228.399 202.360,228.284 202.800 M312.400 209.400 C 312.400 209.730,312.580 210.000,312.800 210.000 C 313.020 210.000,313.200 209.730,313.200 209.400 C 313.200 209.070,313.020 208.800,312.800 208.800 C 312.580 208.800,312.400 209.070,312.400 209.400 M90.800 210.400 C 90.800 210.620,91.070 210.800,91.400 210.800 C 91.730 210.800,92.000 210.620,92.000 210.400 C 92.000 210.180,91.730 210.000,91.400 210.000 C 91.070 210.000,90.800 210.180,90.800 210.400 M125.200 210.400 C 125.200 210.620,125.470 210.800,125.800 210.800 C 126.130 210.800,126.400 210.620,126.400 210.400 C 126.400 210.180,126.130 210.000,125.800 210.000 C 125.470 210.000,125.200 210.180,125.200 210.400 M182.000 211.600 C 182.000 212.040,182.180 212.400,182.400 212.400 C 182.620 212.400,182.800 212.040,182.800 211.600 C 182.800 211.160,182.620 210.800,182.400 210.800 C 182.180 210.800,182.000 211.160,182.000 211.600 M166.400 212.800 C 166.400 213.020,166.940 213.200,167.600 213.200 C 168.260 213.200,168.800 213.020,168.800 212.800 C 168.800 212.580,168.260 212.400,167.600 212.400 C 166.940 212.400,166.400 212.580,166.400 212.800 M172.272 213.400 C 172.581 214.272,173.605 215.460,173.591 214.929 C 173.586 214.748,173.224 214.150,172.786 213.600 C 172.152 212.804,172.047 212.763,172.272 213.400 M84.860 213.842 C 84.131 214.666,84.600 215.057,85.381 214.276 C 85.721 213.936,86.000 213.554,86.000 213.429 C 86.000 213.009,85.406 213.224,84.860 213.842 M285.200 216.200 C 285.200 216.530,285.380 216.800,285.600 216.800 C 285.820 216.800,286.000 216.530,286.000 216.200 C 286.000 215.870,285.820 215.600,285.600 215.600 C 285.380 215.600,285.200 215.870,285.200 216.200 M191.600 217.000 C 191.600 217.330,191.780 217.600,192.000 217.600 C 192.220 217.600,192.400 217.330,192.400 217.000 C 192.400 216.670,192.220 216.400,192.000 216.400 C 191.780 216.400,191.600 216.670,191.600 217.000 M142.000 217.800 C 142.000 218.130,142.180 218.400,142.400 218.400 C 142.620 218.400,142.800 218.130,142.800 217.800 C 142.800 217.470,142.620 217.200,142.400 217.200 C 142.180 217.200,142.000 217.470,142.000 217.800 M302.800 221.800 C 302.800 222.130,302.980 222.400,303.200 222.400 C 303.420 222.400,303.600 222.130,303.600 221.800 C 303.600 221.470,303.420 221.200,303.200 221.200 C 302.980 221.200,302.800 221.470,302.800 221.800 M290.800 229.800 C 290.800 230.130,290.980 230.400,291.200 230.400 C 291.420 230.400,291.600 230.130,291.600 229.800 C 291.600 229.470,291.420 229.200,291.200 229.200 C 290.980 229.200,290.800 229.470,290.800 229.800 M128.800 230.400 C 128.800 230.620,129.070 230.800,129.400 230.800 C 129.730 230.800,130.000 230.620,130.000 230.400 C 130.000 230.180,129.730 230.000,129.400 230.000 C 129.070 230.000,128.800 230.180,128.800 230.400 M286.800 231.000 C 286.800 231.330,286.980 231.600,287.200 231.600 C 287.420 231.600,287.600 231.330,287.600 231.000 C 287.600 230.670,287.420 230.400,287.200 230.400 C 286.980 230.400,286.800 230.670,286.800 231.000 M84.400 233.000 C 84.400 233.330,84.580 233.600,84.800 233.600 C 85.020 233.600,85.200 233.330,85.200 233.000 C 85.200 232.670,85.020 232.400,84.800 232.400 C 84.580 232.400,84.400 232.670,84.400 233.000 M155.600 236.000 C 155.600 236.220,156.140 236.400,156.800 236.400 C 157.460 236.400,158.000 236.220,158.000 236.000 C 158.000 235.780,157.460 235.600,156.800 235.600 C 156.140 235.600,155.600 235.780,155.600 236.000 M201.200 239.400 C 201.200 240.073,201.273 240.100,202.167 239.757 C 203.061 239.414,202.954 238.800,202.000 238.800 C 201.556 238.800,201.200 239.067,201.200 239.400 M158.800 241.000 C 158.800 241.330,158.980 241.600,159.200 241.600 C 159.420 241.600,159.600 241.330,159.600 241.000 C 159.600 240.670,159.420 240.400,159.200 240.400 C 158.980 240.400,158.800 240.670,158.800 241.000 M138.460 241.842 C 137.731 242.666,138.200 243.057,138.981 242.276 C 139.321 241.936,139.600 241.554,139.600 241.429 C 139.600 241.009,139.006 241.224,138.460 241.842 M162.400 244.000 C 162.400 244.220,162.670 244.400,163.000 244.400 C 163.330 244.400,163.600 244.220,163.600 244.000 C 163.600 243.780,163.330 243.600,163.000 243.600 C 162.670 243.600,162.400 243.780,162.400 244.000 M125.900 246.676 C 124.942 246.926,125.015 247.600,126.000 247.600 C 126.444 247.600,126.800 247.333,126.800 247.000 C 126.800 246.670,126.755 246.421,126.700 246.446 C 126.645 246.472,126.285 246.575,125.900 246.676 M164.400 247.200 C 164.400 247.420,165.120 247.600,166.000 247.600 C 166.880 247.600,167.600 247.420,167.600 247.200 C 167.600 246.980,166.880 246.800,166.000 246.800 C 165.120 246.800,164.400 246.980,164.400 247.200 M194.800 255.400 C 194.800 255.730,194.980 256.000,195.200 256.000 C 195.420 256.000,195.600 255.730,195.600 255.400 C 195.600 255.070,195.420 254.800,195.200 254.800 C 194.980 254.800,194.800 255.070,194.800 255.400 " stroke="none" fill="#b3b3b3" fill-rule="evenodd"></path><path id="path3" d="M271.600 198.400 C 271.600 198.620,271.870 198.800,272.200 198.800 C 272.530 198.800,272.800 198.620,272.800 198.400 C 272.800 198.180,272.530 198.000,272.200 198.000 C 271.870 198.000,271.600 198.180,271.600 198.400 M279.600 198.400 C 279.600 198.620,279.960 198.800,280.400 198.800 C 280.840 198.800,281.200 198.620,281.200 198.400 C 281.200 198.180,280.840 198.000,280.400 198.000 C 279.960 198.000,279.600 198.180,279.600 198.400 M310.000 198.400 C 310.000 198.620,310.360 198.800,310.800 198.800 C 311.240 198.800,311.600 198.620,311.600 198.400 C 311.600 198.180,311.240 198.000,310.800 198.000 C 310.360 198.000,310.000 198.180,310.000 198.400 M96.400 209.600 C 96.400 209.820,96.760 210.000,97.200 210.000 C 97.640 210.000,98.000 209.820,98.000 209.600 C 98.000 209.380,97.640 209.200,97.200 209.200 C 96.760 209.200,96.400 209.380,96.400 209.600 M130.800 209.600 C 130.800 209.820,131.160 210.000,131.600 210.000 C 132.040 210.000,132.400 209.820,132.400 209.600 C 132.400 209.380,132.040 209.200,131.600 209.200 C 131.160 209.200,130.800 209.380,130.800 209.600 M172.400 215.000 C 172.400 215.330,172.580 215.600,172.800 215.600 C 173.020 215.600,173.200 215.330,173.200 215.000 C 173.200 214.670,173.020 214.400,172.800 214.400 C 172.580 214.400,172.400 214.670,172.400 215.000 M154.800 221.400 C 154.800 221.730,154.980 222.000,155.200 222.000 C 155.420 222.000,155.600 221.730,155.600 221.400 C 155.600 221.070,155.420 220.800,155.200 220.800 C 154.980 220.800,154.800 221.070,154.800 221.400 M110.800 225.600 C 110.800 226.260,110.980 226.800,111.200 226.800 C 111.420 226.800,111.600 226.260,111.600 225.600 C 111.600 224.940,111.420 224.400,111.200 224.400 C 110.980 224.400,110.800 224.940,110.800 225.600 " stroke="none" fill="#9c9c9c" fill-rule="evenodd"></path><path id="path4" d="M225.200 195.400 C 225.200 195.925,227.733 196.000,245.600 196.000 C 263.467 196.000,266.000 195.925,266.000 195.400 C 266.000 194.875,263.467 194.800,245.600 194.800 C 227.733 194.800,225.200 194.875,225.200 195.400 M270.400 195.400 C 270.400 195.730,270.130 196.000,269.800 196.000 C 269.470 196.000,269.200 196.180,269.200 196.400 C 269.200 196.620,269.367 196.800,269.571 196.800 C 269.775 196.800,270.024 197.115,270.124 197.500 C 270.237 197.931,270.325 197.777,270.354 197.100 L 270.400 196.000 277.000 196.000 C 282.600 196.000,283.600 195.909,283.600 195.400 C 283.600 194.891,282.600 194.800,277.000 194.800 C 271.400 194.800,270.400 194.891,270.400 195.400 M307.600 195.400 C 307.600 195.910,308.622 196.000,314.400 196.000 C 320.178 196.000,321.200 195.910,321.200 195.400 C 321.200 194.890,320.178 194.800,314.400 194.800 C 308.622 194.800,307.600 194.890,307.600 195.400 M311.900 197.865 C 312.175 197.976,312.400 198.322,312.400 198.633 C 312.400 199.214,312.879 199.387,313.306 198.961 C 313.786 198.481,313.091 197.601,312.257 197.632 C 311.786 197.649,311.625 197.754,311.900 197.865 M316.912 198.425 C 316.962 199.092,317.053 199.143,317.387 198.690 C 317.614 198.382,318.070 198.025,318.400 197.896 C 318.761 197.756,318.572 197.651,317.925 197.632 C 317.076 197.607,316.863 197.774,316.912 198.425 M274.000 199.833 C 274.000 200.540,274.861 200.417,275.108 199.675 C 275.195 199.414,274.982 199.200,274.633 199.200 C 274.285 199.200,274.000 199.485,274.000 199.833 M228.243 200.233 C 228.109 200.581,228.021 201.436,228.046 202.133 C 228.072 202.830,228.175 203.085,228.276 202.700 C 228.376 202.315,228.625 202.000,228.829 202.000 C 229.033 202.000,229.200 201.460,229.200 200.800 C 229.200 199.518,228.644 199.188,228.243 200.233 M278.800 201.000 C 278.800 201.330,278.980 201.600,279.200 201.600 C 279.420 201.600,279.600 201.330,279.600 201.000 C 279.600 200.670,279.420 200.400,279.200 200.400 C 278.980 200.400,278.800 200.670,278.800 201.000 M315.478 201.056 C 315.158 201.375,315.519 202.000,316.024 202.000 C 316.231 202.000,316.400 201.730,316.400 201.400 C 316.400 200.781,315.928 200.605,315.478 201.056 M262.000 203.784 C 262.000 204.791,262.160 205.214,262.500 205.102 C 263.249 204.855,263.325 203.402,262.619 202.816 C 262.079 202.368,262.000 202.492,262.000 203.784 M278.000 209.400 C 278.000 209.767,278.194 210.002,278.430 209.923 C 278.666 209.845,278.860 209.609,278.860 209.400 C 278.860 209.191,278.666 208.956,278.430 208.877 C 278.194 208.798,278.000 209.033,278.000 209.400 M100.800 210.400 C 100.800 210.620,101.070 210.800,101.400 210.800 C 101.730 210.800,102.000 210.620,102.000 210.400 C 102.000 210.180,101.730 210.000,101.400 210.000 C 101.070 210.000,100.800 210.180,100.800 210.400 M135.200 210.633 C 135.200 210.982,135.414 211.195,135.675 211.108 C 136.417 210.861,136.540 210.000,135.833 210.000 C 135.485 210.000,135.200 210.285,135.200 210.633 M172.000 210.633 C 172.000 210.982,172.214 211.195,172.475 211.108 C 173.217 210.861,173.340 210.000,172.633 210.000 C 172.285 210.000,172.000 210.285,172.000 210.633 M182.825 211.300 C 182.849 212.516,182.875 212.539,183.226 211.663 C 183.600 210.730,183.626 210.727,189.601 210.863 C 194.207 210.968,195.601 210.884,195.600 210.500 C 195.600 210.121,194.053 210.000,189.200 210.000 L 182.800 210.000 182.825 211.300 M208.400 210.400 C 208.400 210.650,210.800 210.800,214.800 210.800 C 218.800 210.800,221.200 210.650,221.200 210.400 C 221.200 210.150,218.800 210.000,214.800 210.000 C 210.800 210.000,208.400 210.150,208.400 210.400 M282.667 210.267 C 282.206 210.727,282.375 211.200,283.000 211.200 C 283.330 211.200,283.600 210.930,283.600 210.600 C 283.600 209.975,283.127 209.806,282.667 210.267 M311.600 211.000 C 311.600 211.330,311.780 211.600,312.000 211.600 C 312.220 211.600,312.400 211.330,312.400 211.000 C 312.400 210.670,312.220 210.400,312.000 210.400 C 311.780 210.400,311.600 210.670,311.600 211.000 M158.800 212.000 C 158.800 212.220,159.070 212.400,159.400 212.400 C 159.730 212.400,160.000 212.220,160.000 212.000 C 160.000 211.780,159.730 211.600,159.400 211.600 C 159.070 211.600,158.800 211.780,158.800 212.000 M306.800 212.167 C 306.800 212.515,307.085 212.800,307.433 212.800 C 308.140 212.800,308.017 211.939,307.275 211.692 C 307.014 211.605,306.800 211.818,306.800 212.167 M94.184 212.427 C 94.039 212.661,94.038 212.971,94.182 213.115 C 94.326 213.259,94.569 213.178,94.722 212.935 C 94.875 212.692,95.360 212.403,95.800 212.293 C 96.425 212.137,96.364 212.083,95.524 212.046 C 94.932 212.021,94.329 212.192,94.184 212.427 M97.700 212.276 C 98.085 212.376,98.400 212.625,98.400 212.829 C 98.400 213.033,98.580 213.200,98.800 213.200 C 99.020 213.200,99.200 212.930,99.200 212.600 C 99.200 212.201,98.832 212.016,98.100 212.046 C 97.423 212.075,97.269 212.163,97.700 212.276 M165.600 212.600 C 165.600 212.930,165.780 213.200,166.000 213.200 C 166.220 213.200,166.400 213.020,166.400 212.800 C 166.400 212.580,166.940 212.400,167.600 212.400 C 168.260 212.400,168.800 212.580,168.800 212.800 C 168.800 213.020,168.980 213.200,169.200 213.200 C 169.420 213.200,169.600 212.930,169.600 212.600 C 169.600 212.147,169.111 212.000,167.600 212.000 C 166.089 212.000,165.600 212.147,165.600 212.600 M194.667 212.267 C 194.206 212.727,194.375 213.200,195.000 213.200 C 195.330 213.200,195.600 212.930,195.600 212.600 C 195.600 211.975,195.127 211.806,194.667 212.267 M91.456 213.078 C 91.005 213.528,91.181 214.000,91.800 214.000 C 92.130 214.000,92.400 213.831,92.400 213.624 C 92.400 213.119,91.775 212.758,91.456 213.078 M134.256 213.078 C 133.805 213.528,133.981 214.000,134.600 214.000 C 134.930 214.000,135.200 213.831,135.200 213.624 C 135.200 213.119,134.575 212.758,134.256 213.078 M190.000 213.176 C 190.000 213.383,190.208 213.681,190.462 213.838 C 190.736 214.008,190.815 213.949,190.657 213.692 C 190.510 213.455,190.707 213.178,191.095 213.077 C 191.632 212.937,191.585 212.882,190.900 212.846 C 190.405 212.821,190.000 212.969,190.000 213.176 M217.039 213.138 C 216.900 213.361,216.982 213.665,217.220 213.812 C 217.835 214.193,218.232 213.672,217.718 213.158 C 217.431 212.871,217.207 212.864,217.039 213.138 M279.600 213.433 C 279.600 213.782,279.814 213.995,280.075 213.908 C 280.817 213.661,280.940 212.800,280.233 212.800 C 279.885 212.800,279.600 213.085,279.600 213.433 M85.286 214.262 C 84.783 214.778,84.571 215.200,84.814 215.200 C 85.401 215.200,86.500 214.083,86.332 213.658 C 86.259 213.474,85.789 213.745,85.286 214.262 M119.600 213.833 C 119.600 214.182,119.814 214.395,120.075 214.308 C 120.817 214.061,120.940 213.200,120.233 213.200 C 119.885 213.200,119.600 213.485,119.600 213.833 M162.400 213.600 C 162.400 213.820,162.670 214.000,163.000 214.000 C 163.330 214.000,163.600 213.820,163.600 213.600 C 163.600 213.380,163.330 213.200,163.000 213.200 C 162.670 213.200,162.400 213.380,162.400 213.600 M102.000 213.892 C 102.330 214.017,102.732 214.318,102.894 214.560 C 103.075 214.831,103.190 214.732,103.194 214.300 C 103.198 213.830,102.905 213.610,102.300 213.632 C 101.699 213.653,101.599 213.739,102.000 213.892 M186.000 214.200 C 186.000 214.567,186.194 214.802,186.430 214.723 C 186.667 214.645,186.860 214.409,186.860 214.200 C 186.860 213.991,186.667 213.755,186.430 213.677 C 186.194 213.598,186.000 213.833,186.000 214.200 M89.600 214.400 C 89.600 214.620,89.870 214.800,90.200 214.800 C 90.530 214.800,90.800 214.620,90.800 214.400 C 90.800 214.180,90.530 214.000,90.200 214.000 C 89.870 214.000,89.600 214.180,89.600 214.400 M284.400 214.600 C 284.400 214.930,284.580 215.200,284.800 215.200 C 285.020 215.200,285.200 214.930,285.200 214.600 C 285.200 214.270,285.020 214.000,284.800 214.000 C 284.580 214.000,284.400 214.270,284.400 214.600 M216.400 215.000 C 216.400 215.330,216.580 215.600,216.800 215.600 C 217.020 215.600,217.200 215.330,217.200 215.000 C 217.200 214.670,217.020 214.400,216.800 214.400 C 216.580 214.400,216.400 214.670,216.400 215.000 M309.692 214.875 C 309.939 215.617,310.800 215.740,310.800 215.033 C 310.800 214.685,310.515 214.400,310.167 214.400 C 309.818 214.400,309.605 214.614,309.692 214.875 M190.678 215.056 C 190.358 215.375,190.719 216.000,191.224 216.000 C 191.431 216.000,191.600 215.730,191.600 215.400 C 191.600 214.781,191.128 214.605,190.678 215.056 M108.278 215.856 C 107.958 216.175,108.319 216.800,108.824 216.800 C 109.031 216.800,109.200 216.530,109.200 216.200 C 109.200 215.581,108.728 215.405,108.278 215.856 M121.700 215.882 C 121.205 215.978,120.800 216.313,120.800 216.628 C 120.800 217.466,121.729 217.326,122.307 216.400 C 122.582 215.960,122.760 215.625,122.703 215.654 C 122.647 215.684,122.195 215.787,121.700 215.882 M305.200 216.200 C 305.200 216.567,305.394 216.802,305.630 216.723 C 305.867 216.645,306.060 216.409,306.060 216.200 C 306.060 215.991,305.867 215.755,305.630 215.677 C 305.394 215.598,305.200 215.833,305.200 216.200 M211.600 216.967 C 211.600 217.315,211.885 217.600,212.233 217.600 C 212.940 217.600,212.817 216.739,212.075 216.492 C 211.814 216.405,211.600 216.618,211.600 216.967 M105.440 217.106 C 105.682 217.268,105.983 217.670,106.108 218.000 C 106.261 218.401,106.347 218.301,106.368 217.700 C 106.390 217.095,106.170 216.802,105.700 216.806 C 105.268 216.810,105.169 216.925,105.440 217.106 M158.678 217.056 C 158.358 217.375,158.719 218.000,159.224 218.000 C 159.431 218.000,159.600 217.730,159.600 217.400 C 159.600 216.781,159.128 216.605,158.678 217.056 M109.067 217.467 C 108.606 217.927,108.775 218.400,109.400 218.400 C 109.730 218.400,110.000 218.130,110.000 217.800 C 110.000 217.175,109.527 217.006,109.067 217.467 M141.632 217.900 C 141.610 218.505,141.830 218.798,142.300 218.794 C 142.732 218.790,142.831 218.675,142.560 218.494 C 142.318 218.332,142.017 217.930,141.892 217.600 C 141.739 217.199,141.653 217.299,141.632 217.900 M155.300 218.665 C 154.603 218.946,154.674 220.266,155.400 220.545 C 155.850 220.717,156.000 220.479,156.000 219.587 C 156.000 218.934,155.955 218.414,155.900 218.432 C 155.845 218.449,155.575 218.554,155.300 218.665 M81.200 220.167 C 81.200 220.515,81.485 220.800,81.833 220.800 C 82.182 220.800,82.395 220.586,82.308 220.325 C 82.061 219.583,81.200 219.460,81.200 220.167 M110.000 220.200 C 110.000 220.530,110.180 220.800,110.400 220.800 C 110.620 220.800,110.800 220.530,110.800 220.200 C 110.800 219.870,110.620 219.600,110.400 219.600 C 110.180 219.600,110.000 219.870,110.000 220.200 M303.600 220.200 C 303.600 220.530,303.780 220.800,304.000 220.800 C 304.220 220.800,304.400 220.530,304.400 220.200 C 304.400 219.870,304.220 219.600,304.000 219.600 C 303.780 219.600,303.600 219.870,303.600 220.200 M213.878 220.256 C 213.558 220.575,213.919 221.200,214.424 221.200 C 214.631 221.200,214.800 220.930,214.800 220.600 C 214.800 219.981,214.328 219.805,213.878 220.256 M193.078 220.656 C 192.758 220.975,193.119 221.600,193.624 221.600 C 193.831 221.600,194.000 221.330,194.000 221.000 C 194.000 220.381,193.528 220.205,193.078 220.656 M106.800 221.433 C 106.800 222.140,107.661 222.017,107.908 221.275 C 107.995 221.014,107.782 220.800,107.433 220.800 C 107.085 220.800,106.800 221.085,106.800 221.433 M189.200 221.400 C 189.200 221.730,189.380 222.000,189.600 222.000 C 189.820 222.000,190.000 221.730,190.000 221.400 C 190.000 221.070,189.820 220.800,189.600 220.800 C 189.380 220.800,189.200 221.070,189.200 221.400 M138.800 224.233 C 138.800 226.161,138.934 226.823,139.300 226.702 C 139.862 226.518,140.180 223.971,139.820 222.538 C 139.360 220.705,138.800 221.636,138.800 224.233 M84.032 222.900 C 84.053 223.501,84.139 223.601,84.292 223.200 C 84.417 222.870,84.718 222.468,84.960 222.306 C 85.231 222.125,85.132 222.010,84.700 222.006 C 84.230 222.002,84.010 222.295,84.032 222.900 M209.200 222.567 C 209.200 222.915,209.485 223.200,209.833 223.200 C 210.540 223.200,210.417 222.339,209.675 222.092 C 209.414 222.005,209.200 222.218,209.200 222.567 M283.600 223.033 C 283.600 223.382,283.814 223.595,284.075 223.508 C 284.817 223.261,284.940 222.400,284.233 222.400 C 283.885 222.400,283.600 222.685,283.600 223.033 M80.400 223.400 C 80.400 223.767,80.594 224.002,80.830 223.923 C 81.067 223.845,81.260 223.609,81.260 223.400 C 81.260 223.191,81.067 222.956,80.830 222.877 C 80.594 222.798,80.400 223.033,80.400 223.400 M288.267 223.867 C 287.806 224.327,287.975 224.800,288.600 224.800 C 288.930 224.800,289.200 224.530,289.200 224.200 C 289.200 223.575,288.727 223.406,288.267 223.867 M156.400 224.429 C 156.400 225.164,157.462 225.961,158.354 225.893 C 159.192 225.830,159.190 225.813,158.221 224.915 C 157.166 223.936,156.400 223.732,156.400 224.429 M305.878 224.256 C 305.558 224.575,305.919 225.200,306.424 225.200 C 306.631 225.200,306.800 224.930,306.800 224.600 C 306.800 223.981,306.328 223.805,305.878 224.256 M163.200 225.033 C 163.200 225.382,163.414 225.595,163.675 225.508 C 164.417 225.261,164.540 224.400,163.833 224.400 C 163.485 224.400,163.200 224.685,163.200 225.033 M211.292 226.075 C 211.539 226.817,212.400 226.940,212.400 226.233 C 212.400 225.885,212.115 225.600,211.767 225.600 C 211.418 225.600,211.205 225.814,211.292 226.075 M97.200 226.400 C 79.543 226.672,79.731 227.365,97.500 227.505 C 104.815 227.563,110.797 227.473,110.794 227.305 C 110.773 226.287,109.603 226.209,97.200 226.400 M168.000 226.633 C 168.000 226.982,168.214 227.195,168.475 227.108 C 169.217 226.861,169.340 226.000,168.633 226.000 C 168.285 226.000,168.000 226.285,168.000 226.633 M195.478 226.256 C 195.158 226.575,195.519 227.200,196.024 227.200 C 196.231 227.200,196.400 226.930,196.400 226.600 C 196.400 225.981,195.928 225.805,195.478 226.256 M191.600 227.033 C 191.600 227.382,191.814 227.595,192.075 227.508 C 192.817 227.261,192.940 226.400,192.233 226.400 C 191.885 226.400,191.600 226.685,191.600 227.033 M131.200 227.171 C 131.200 227.375,130.885 227.624,130.500 227.724 C 130.069 227.837,130.223 227.925,130.900 227.954 C 131.632 227.984,132.000 227.799,132.000 227.400 C 132.000 227.070,131.820 226.800,131.600 226.800 C 131.380 226.800,131.200 226.967,131.200 227.171 M127.200 227.971 C 127.200 228.175,126.885 228.424,126.500 228.524 C 125.973 228.662,126.023 228.719,126.700 228.754 C 127.254 228.782,127.600 228.569,127.600 228.200 C 127.600 227.870,127.510 227.600,127.400 227.600 C 127.290 227.600,127.200 227.767,127.200 227.971 M290.000 228.200 C 290.000 228.530,290.180 228.800,290.400 228.800 C 290.620 228.800,290.800 228.530,290.800 228.200 C 290.800 227.870,290.620 227.600,290.400 227.600 C 290.180 227.600,290.000 227.870,290.000 228.200 M133.467 229.067 C 133.006 229.527,133.175 230.000,133.800 230.000 C 134.130 230.000,134.400 229.833,134.400 229.629 C 134.400 229.425,134.715 229.176,135.100 229.076 C 135.559 228.956,135.444 228.877,134.767 228.846 C 134.198 228.821,133.613 228.920,133.467 229.067 M138.800 233.800 C 138.800 237.622,138.901 238.400,139.400 238.400 C 139.899 238.400,140.000 237.622,140.000 233.800 C 140.000 229.978,139.899 229.200,139.400 229.200 C 138.901 229.200,138.800 229.978,138.800 233.800 M175.232 229.529 C 175.194 230.153,176.159 231.200,176.771 231.200 C 177.007 231.200,177.200 230.930,177.200 230.600 C 177.200 230.270,176.855 230.000,176.433 230.000 C 176.012 230.000,175.576 229.775,175.465 229.500 C 175.311 229.119,175.256 229.125,175.232 229.529 M299.600 229.767 C 299.600 230.115,299.885 230.400,300.233 230.400 C 300.940 230.400,300.817 229.539,300.075 229.292 C 299.814 229.205,299.600 229.418,299.600 229.767 M128.406 230.300 C 128.410 230.732,128.525 230.831,128.706 230.560 C 128.868 230.318,129.270 230.017,129.600 229.892 C 130.001 229.739,129.901 229.653,129.300 229.632 C 128.695 229.610,128.402 229.830,128.406 230.300 M125.600 230.967 C 125.600 231.315,125.885 231.600,126.233 231.600 C 126.582 231.600,126.795 231.386,126.708 231.125 C 126.461 230.383,125.600 230.260,125.600 230.967 M198.000 232.200 C 198.000 232.530,198.180 232.800,198.400 232.800 C 198.620 232.800,198.800 232.530,198.800 232.200 C 198.800 231.870,198.620 231.600,198.400 231.600 C 198.180 231.600,198.000 231.870,198.000 232.200 M80.400 232.324 C 80.400 232.539,80.685 232.824,81.033 232.957 C 81.423 233.107,81.606 233.018,81.508 232.725 C 81.309 232.127,80.400 231.798,80.400 232.324 M287.600 232.600 C 287.600 232.930,287.780 233.200,288.000 233.200 C 288.220 233.200,288.400 232.930,288.400 232.600 C 288.400 232.270,288.220 232.000,288.000 232.000 C 287.780 232.000,287.600 232.270,287.600 232.600 M84.032 233.100 C 84.010 233.705,84.230 233.998,84.700 233.994 C 85.132 233.990,85.231 233.875,84.960 233.694 C 84.718 233.532,84.417 233.130,84.292 232.800 C 84.139 232.399,84.053 232.499,84.032 233.100 M208.400 233.400 C 208.400 233.730,208.580 234.000,208.800 234.000 C 209.020 234.000,209.200 233.730,209.200 233.400 C 209.200 233.070,209.020 232.800,208.800 232.800 C 208.580 232.800,208.400 233.070,208.400 233.400 M298.000 233.767 C 298.000 234.115,298.285 234.400,298.633 234.400 C 299.340 234.400,299.217 233.539,298.475 233.292 C 298.214 233.205,298.000 233.418,298.000 233.767 M194.800 234.233 C 194.800 234.582,195.014 234.795,195.275 234.708 C 196.017 234.461,196.140 233.600,195.433 233.600 C 195.085 233.600,194.800 233.885,194.800 234.233 M302.000 234.200 C 302.000 234.530,302.180 234.800,302.400 234.800 C 302.620 234.800,302.800 234.530,302.800 234.200 C 302.800 233.870,302.620 233.600,302.400 233.600 C 302.180 233.600,302.000 233.870,302.000 234.200 M174.800 236.449 C 174.800 237.155,174.900 237.215,175.396 236.804 C 175.998 236.304,175.869 235.600,175.176 235.600 C 174.969 235.600,174.800 235.982,174.800 236.449 M289.200 236.633 C 289.200 236.982,289.414 237.195,289.675 237.108 C 290.417 236.861,290.540 236.000,289.833 236.000 C 289.485 236.000,289.200 236.285,289.200 236.633 M119.345 237.000 C 119.059 237.746,119.435 238.800,119.987 238.800 C 120.214 238.800,120.400 238.260,120.400 237.600 C 120.400 236.344,119.740 235.969,119.345 237.000 M154.800 240.827 C 154.800 245.015,154.842 245.241,155.570 245.009 C 156.076 244.849,156.484 245.011,156.758 245.482 C 156.988 245.877,157.181 245.997,157.188 245.749 C 157.195 245.501,156.930 245.074,156.600 244.800 C 156.145 244.423,156.000 243.400,156.000 240.578 L 156.000 236.853 157.100 236.687 C 157.872 236.570,157.694 236.502,156.500 236.460 L 154.800 236.400 154.800 240.827 M86.000 237.800 C 86.000 238.130,86.180 238.400,86.400 238.400 C 86.620 238.400,86.800 238.130,86.800 237.800 C 86.800 237.470,86.620 237.200,86.400 237.200 C 86.180 237.200,86.000 237.470,86.000 237.800 M200.400 237.800 C 200.400 238.130,200.580 238.400,200.800 238.400 C 201.020 238.400,201.200 238.130,201.200 237.800 C 201.200 237.470,201.020 237.200,200.800 237.200 C 200.580 237.200,200.400 237.470,200.400 237.800 M202.800 237.800 C 202.800 238.130,202.980 238.400,203.200 238.400 C 203.420 238.400,203.600 238.130,203.600 237.800 C 203.600 237.470,203.420 237.200,203.200 237.200 C 202.980 237.200,202.800 237.470,202.800 237.800 M293.867 237.467 C 293.406 237.927,293.575 238.400,294.200 238.400 C 294.530 238.400,294.800 238.130,294.800 237.800 C 294.800 237.175,294.327 237.006,293.867 237.467 M296.400 237.800 C 296.400 238.167,296.594 238.402,296.830 238.323 C 297.067 238.245,297.260 238.009,297.260 237.800 C 297.260 237.591,297.067 237.356,296.830 237.277 C 296.594 237.198,296.400 237.433,296.400 237.800 M300.092 238.075 C 300.339 238.817,301.200 238.940,301.200 238.233 C 301.200 237.885,300.915 237.600,300.567 237.600 C 300.218 237.600,300.005 237.814,300.092 238.075 M177.692 238.875 C 177.939 239.617,178.800 239.740,178.800 239.033 C 178.800 238.685,178.515 238.400,178.167 238.400 C 177.818 238.400,177.605 238.614,177.692 238.875 M205.878 238.656 C 205.558 238.975,205.919 239.600,206.424 239.600 C 206.631 239.600,206.800 239.330,206.800 239.000 C 206.800 238.381,206.328 238.205,205.878 238.656 M200.846 239.020 C 200.776 239.658,201.753 241.593,202.147 241.597 C 202.337 241.599,202.399 241.240,202.284 240.800 C 202.148 240.280,202.272 240.000,202.637 240.000 C 202.947 240.000,203.200 239.717,203.200 239.371 C 203.200 238.800,203.143 238.800,202.571 239.371 C 201.755 240.188,201.302 240.167,201.076 239.300 C 200.975 238.915,200.872 238.789,200.846 239.020 M294.800 240.200 C 294.800 240.530,294.980 240.800,295.200 240.800 C 295.420 240.800,295.600 240.530,295.600 240.200 C 295.600 239.870,295.420 239.600,295.200 239.600 C 294.980 239.600,294.800 239.870,294.800 240.200 M116.400 240.641 C 116.400 240.760,116.670 241.127,117.000 241.457 C 117.520 241.978,117.600 241.979,117.600 241.471 C 117.600 241.149,117.330 240.782,117.000 240.655 C 116.670 240.529,116.400 240.522,116.400 240.641 M120.400 241.000 C 120.400 241.330,120.580 241.600,120.800 241.600 C 121.020 241.600,121.200 241.330,121.200 241.000 C 121.200 240.670,121.020 240.400,120.800 240.400 C 120.580 240.400,120.400 240.670,120.400 241.000 M158.459 241.400 C 158.420 242.801,159.318 244.176,160.075 243.873 C 160.468 243.716,160.474 243.655,160.100 243.632 C 159.825 243.614,159.600 243.150,159.600 242.600 C 159.600 242.050,159.433 241.600,159.229 241.600 C 159.025 241.600,158.776 241.285,158.676 240.900 C 158.575 240.515,158.478 240.740,158.459 241.400 M173.200 241.200 C 173.200 241.733,172.933 242.000,172.400 242.000 C 171.960 242.000,171.600 242.180,171.600 242.400 C 171.600 243.051,172.611 242.858,173.576 242.021 C 174.069 241.593,174.356 241.053,174.213 240.821 C 173.784 240.127,173.200 240.345,173.200 241.200 M138.080 241.280 C 137.816 241.544,137.600 242.022,137.600 242.341 C 137.600 242.736,137.857 242.626,138.400 242.000 C 139.481 240.754,139.212 240.148,138.080 241.280 M198.000 241.400 C 198.000 241.767,198.194 242.002,198.430 241.923 C 198.667 241.845,198.860 241.609,198.860 241.400 C 198.860 241.191,198.667 240.956,198.430 240.877 C 198.194 240.798,198.000 241.033,198.000 241.400 M105.292 241.675 C 105.539 242.417,106.400 242.540,106.400 241.833 C 106.400 241.485,106.115 241.200,105.767 241.200 C 105.418 241.200,105.205 241.414,105.292 241.675 M134.892 241.675 C 135.139 242.417,136.000 242.540,136.000 241.833 C 136.000 241.485,135.715 241.200,135.367 241.200 C 135.018 241.200,134.805 241.414,134.892 241.675 M90.400 242.633 C 90.400 243.340,91.261 243.217,91.508 242.475 C 91.595 242.214,91.382 242.000,91.033 242.000 C 90.685 242.000,90.400 242.285,90.400 242.633 M95.855 244.200 C 95.982 244.530,96.494 244.800,96.994 244.800 C 97.493 244.800,98.126 244.530,98.400 244.200 C 98.829 243.683,98.671 243.600,97.262 243.600 C 95.971 243.600,95.674 243.727,95.855 244.200 M129.600 243.971 C 129.600 244.175,129.285 244.433,128.900 244.545 C 128.479 244.667,128.586 244.718,129.169 244.674 C 130.104 244.603,130.912 243.600,130.033 243.600 C 129.795 243.600,129.600 243.767,129.600 243.971 M162.006 244.100 C 162.002 244.570,162.295 244.790,162.900 244.768 C 163.501 244.747,163.601 244.661,163.200 244.508 C 162.870 244.383,162.468 244.082,162.306 243.840 C 162.125 243.569,162.010 243.668,162.006 244.100 M168.084 244.215 C 167.660 244.696,167.670 244.800,168.141 244.800 C 168.457 244.800,168.818 244.530,168.945 244.200 C 169.236 243.441,168.760 243.449,168.084 244.215 M237.660 244.266 C 237.362 244.589,237.230 244.964,237.366 245.100 C 237.701 245.434,238.527 244.570,238.345 244.074 C 238.265 243.856,237.957 243.942,237.660 244.266 M252.800 244.148 C 252.800 244.806,253.518 245.415,253.874 245.059 C 253.996 244.938,253.804 244.547,253.448 244.190 C 252.888 243.631,252.800 243.625,252.800 244.148 M173.856 244.278 C 173.405 244.728,173.581 245.200,174.200 245.200 C 174.530 245.200,174.800 245.031,174.800 244.824 C 174.800 244.319,174.175 243.958,173.856 244.278 M203.292 244.475 C 203.539 245.217,204.400 245.340,204.400 244.633 C 204.400 244.285,204.115 244.000,203.767 244.000 C 203.418 244.000,203.205 244.214,203.292 244.475 M89.456 245.078 C 89.005 245.528,89.181 246.000,89.800 246.000 C 90.130 246.000,90.400 245.831,90.400 245.624 C 90.400 245.119,89.775 244.758,89.456 245.078 M132.800 245.367 C 132.800 245.715,133.085 246.000,133.433 246.000 C 133.782 246.000,133.995 245.786,133.908 245.525 C 133.661 244.783,132.800 244.660,132.800 245.367 M199.600 245.200 C 199.600 245.420,199.870 245.600,200.200 245.600 C 200.530 245.600,200.800 245.420,200.800 245.200 C 200.800 244.980,200.530 244.800,200.200 244.800 C 199.870 244.800,199.600 244.980,199.600 245.200 M101.600 246.167 C 101.600 246.515,101.885 246.800,102.233 246.800 C 102.940 246.800,102.817 245.939,102.075 245.692 C 101.814 245.605,101.600 245.818,101.600 246.167 M159.067 245.867 C 158.606 246.327,158.775 246.800,159.400 246.800 C 159.730 246.800,160.000 246.530,160.000 246.200 C 160.000 245.575,159.527 245.406,159.067 245.867 M293.200 246.167 C 293.200 246.515,293.485 246.800,293.833 246.800 C 294.540 246.800,294.417 245.939,293.675 245.692 C 293.414 245.605,293.200 245.818,293.200 246.167 M170.400 246.400 C 170.400 246.620,170.670 246.800,171.000 246.800 C 171.330 246.800,171.600 246.620,171.600 246.400 C 171.600 246.180,171.330 246.000,171.000 246.000 C 170.670 246.000,170.400 246.180,170.400 246.400 M165.100 246.682 C 165.595 246.778,166.405 246.778,166.900 246.682 C 167.395 246.587,166.990 246.509,166.000 246.509 C 165.010 246.509,164.605 246.587,165.100 246.682 M196.400 252.200 C 196.400 252.567,196.594 252.802,196.830 252.723 C 197.067 252.645,197.260 252.409,197.260 252.200 C 197.260 251.991,197.067 251.755,196.830 251.677 C 196.594 251.598,196.400 251.833,196.400 252.200 M195.600 253.767 C 195.600 254.115,195.885 254.400,196.233 254.400 C 196.940 254.400,196.817 253.539,196.075 253.292 C 195.814 253.205,195.600 253.418,195.600 253.767 M197.878 257.056 C 197.558 257.375,197.919 258.000,198.424 258.000 C 198.631 258.000,198.800 257.730,198.800 257.400 C 198.800 256.781,198.328 256.605,197.878 257.056 M194.000 259.003 C 194.000 259.433,194.448 259.600,195.600 259.600 C 196.885 259.600,198.025 258.874,196.900 258.773 C 196.735 258.758,196.015 258.670,195.300 258.576 C 194.339 258.451,194.000 258.562,194.000 259.003 " stroke="none" fill="#cccccc" fill-rule="evenodd"></path></g></svg>